# xmcd
#
# Track frame offsets:
#	150
#	16422
#	35864
#	47504
#	62155
#	80403
#	92212
#	106348
#	123151
#	134005
#	149123
#
# Disc length: 2190 seconds
#
# Revision: 1
# Processed by: cddbd v1.5.2PL0 Copyright (c) Steve Scherf et al.
# Submitted via: audiograbber 1.80
#
DISCID=a0088c0b
DTITLE=Amy Winehouse - Back To Black
DYEAR=1900
DGENRE=
TTITLE0=Rehab
TTITLE1=You Know I'm No Good
TTITLE2=Me and Mr Jones
TTITLE3=Just Friends
TTITLE4=Back To Black
TTITLE5=Love Is a Losing Game
TTITLE6=Tears Dry on Their Own
TTITLE7=Wake Up Alone
TTITLE8=Some Unholy War
TTITLE9=He Can Only Hold Her
TTITLE10=You know I'm No Good (Remix)
EXTD=
EXTT0=
EXTT1=
EXTT2=
EXTT3=
EXTT4=
EXTT5=
EXTT6=
EXTT7=
EXTT8=
EXTT9=
EXTT10=
PLAYORDER=
